HIERARCHY
ROOT SpineBase
{
  OFFSET 0.000000 0.000000 0.000000
  CHANNELS 6 Xposition Yposition Zposition Zrotation Xrotation Yrotation
  JOINT SpineMid
  {
    OFFSET 0.000000 26.407954 0.000000
    CHANNELS 3 Zrotation Xrotation Yrotation
    JOINT SpineShoulder
    {
      OFFSET -0.021672 19.482243 -0.624076
      CHANNELS 3 Zrotation Xrotation Yrotation
      JOINT Neck
      {
        OFFSET -0.021153 6.400059 -0.504299
        CHANNELS 3 Zrotation Xrotation Yrotation
        JOINT Head
        {
          OFFSET 3.423821 12.346669 -1.430538
          CHANNELS 3 Zrotation Xrotation Yrotation
          End Site
          {
            OFFSET 0 0 0
          }
        }
      }
      JOINT ShoulderLeft
      {
        OFFSET -11.899877 -3.339654 -8.391858
        CHANNELS 3 Zrotation Xrotation Yrotation
        JOINT ElbowLeft
        {
          OFFSET -7.813371 -20.557613 -6.160594
          CHANNELS 3 Zrotation Xrotation Yrotation
          JOINT WristLeft
          {
            OFFSET 6.701227 -13.139444 -16.832337
            CHANNELS 3 Zrotation Xrotation Yrotation
            JOINT HandLeft
            {
              OFFSET 3.980585 -4.168964 -4.199297
              CHANNELS 3 Zrotation Xrotation Yrotation
              JOINT HandTipLeft
              {
                OFFSET 3.255713 -2.620143 -2.490598
                CHANNELS 3 Zrotation Xrotation Yrotation
                End Site
                {
                  OFFSET 0 0 0
                }
              }
              JOINT ThumbLeft
              {
                OFFSET -1.616105 -5.585116 3.783822
                CHANNELS 3 Zrotation Xrotation Yrotation
                End Site
                {
                  OFFSET 0 0 0
                }
              }
            }
          }
        }
      }
      JOINT ShoulderRight
      {
        OFFSET 14.941777 -4.764559 6.356889
        CHANNELS 3 Zrotation Xrotation Yrotation
        JOINT ElbowRight
        {
          OFFSET 8.544371 -20.587530 10.339661
          CHANNELS 3 Zrotation Xrotation Yrotation
          JOINT WristRight
          {
            OFFSET 17.264605 -15.815512 -15.661318
            CHANNELS 3 Zrotation Xrotation Yrotation
            JOINT HandRight
            {
              OFFSET 1.460632 -3.180701 -2.308176
              CHANNELS 3 Zrotation Xrotation Yrotation
              JOINT HandTipRight
              {
                OFFSET 1.075435 -5.263643 -3.576595
                CHANNELS 3 Zrotation Xrotation Yrotation
                End Site
                {
                  OFFSET 0 0 0
                }
              }
              JOINT ThumbRight
              {
                OFFSET 2.532468 4.186691 -2.838848
                CHANNELS 3 Zrotation Xrotation Yrotation
                End Site
                {
                  OFFSET 0 0 0
                }
              }
            }
          }
        }
      }
    }
  }
  JOINT HipLeft
  {
    OFFSET -6.258438 0.888907 -6.655095
    CHANNELS 3 Zrotation Xrotation Yrotation
    JOINT KneeLeft
    {
      OFFSET 18.428967 -6.908710 -27.933313
      CHANNELS 3 Zrotation Xrotation Yrotation
      JOINT AnkleLeft
      {
        OFFSET -0.893523 -35.380828 3.860391
        CHANNELS 3 Zrotation Xrotation Yrotation
        JOINT FootLeft
        {
          OFFSET 3.267698 -4.856794 -9.493452
          CHANNELS 3 Zrotation Xrotation Yrotation
          End Site
          {
            OFFSET 0 0 0
          }
        }
      }
    }
  }
  JOINT HipRight
  {
    OFFSET 5.549635 -0.275593 -0.321130
    CHANNELS 3 Zrotation Xrotation Yrotation
    JOINT KneeRight
    {
      OFFSET 28.891703 -6.006940 -21.524733
      CHANNELS 3 Zrotation Xrotation Yrotation
      JOINT AnkleRight
      {
        OFFSET -1.523864 -34.762500 3.678869
        CHANNELS 3 Zrotation Xrotation Yrotation
        JOINT FootRight
        {
          OFFSET 3.092229 -4.888094 -9.470811
          CHANNELS 3 Zrotation Xrotation Yrotation
          End Site
          {
            OFFSET 0 0 0
          }
        }
      }
    }
  }
}
MOTION
Frames: 15
Frame Time: 0.033333
37.960281 47.486592 386.155901 -0.000000 0.000000 -28.209537 0.000000 0.000000 28.209537 -0.000000 0.000000 0.000000 -0.000000 0.000000 0.000000 0.000000 0.000000 0.000000 -0.000000 0.000000 0.000000 -0.000000 0.000000 0.000000 -0.000000 0.000000 0.000000 -0.000000 0.000000 0.000000 0.000000 0.000000 0.000000 0.000000 0.000000 0.000000 -0.000000 0.000000 0.000000 -0.000000 0.000000 0.000000 -0.000000 0.000000 0.000000 -0.000000 0.000000 0.000000 0.000000 0.000000 0.000000 0.000000 0.000000 0.000000 0.000000 0.000000 28.209537 -0.000000 0.000000 0.000000 -0.000000 0.000000 0.000000 0.000000 0.000000 0.000000 0.000000 0.000000 28.209537 -0.000000 0.000000 0.000000 -0.000000 0.000000 0.000000 0.000000 0.000000 0.000000
37.943648 47.487584 386.174791 -0.043562 0.031103 -28.103623 0.053078 -0.006915 28.103638 -0.000000 0.000000 0.000000 -0.000000 0.000000 0.000000 0.000000 0.000000 0.000000 -0.000000 0.000000 0.000000 -0.000000 0.000000 0.000000 -0.649629 0.490932 1.127098 -0.503443 -1.477841 -1.315051 0.000000 0.000000 0.000000 0.000000 0.000000 0.000000 -0.000000 0.000000 0.000000 -0.000000 0.000000 0.000000 -0.000000 0.000000 0.000000 -0.000000 0.000000 0.000000 0.000000 0.000000 0.000000 0.000000 0.000000 0.000000 0.053078 -0.006915 28.103638 -0.000000 0.000000 0.000000 -0.000000 0.000000 0.000000 0.000000 0.000000 0.000000 0.053078 -0.006915 28.103638 -0.000000 0.000000 0.000000 -0.000000 0.000000 0.000000 0.000000 0.000000 0.000000
37.933871 47.486572 386.191334 -0.076779 0.056081 -28.034729 0.094128 -0.013414 28.034778 -0.000000 0.000000 0.000000 -0.000000 0.000000 0.000000 0.000000 0.000000 0.000000 -0.000000 0.000000 0.000000 0.829691 -0.105014 -1.112857 -2.031172 1.073117 3.279025 -0.784785 -2.553948 -2.390935 0.000000 0.000000 0.000000 0.000000 0.000000 0.000000 -0.000000 0.000000 0.000000 0.806001 0.588064 -0.158321 -2.054934 -1.434276 0.656075 0.351584 0.247933 -0.033024 0.000000 0.000000 0.000000 0.000000 0.000000 0.000000 0.094128 -0.013414 28.034778 -0.000000 0.000000 0.000000 -0.000000 0.000000 0.000000 0.000000 0.000000 0.000000 0.094128 -0.013414 28.034778 -0.000000 0.000000 0.000000 -0.000000 0.000000 0.000000 0.000000 0.000000 0.000000
37.930952 47.483556 386.205533 -0.099648 0.074934 -28.003113 0.123164 -0.019374 28.003199 -0.000000 0.000000 0.000000 -0.000000 0.000000 0.000000 0.000000 0.000000 0.000000 0.709164 0.534085 -0.419217 0.377479 -0.699178 -1.042416 -2.665835 1.638177 4.511202 -0.862961 -3.234873 -3.138484 0.000000 0.000000 0.000000 0.000000 0.000000 0.000000 -0.000000 0.000000 0.000000 1.116320 0.863460 -0.168246 -3.009563 -2.450752 0.760379 0.251248 1.152252 0.396739 0.000000 0.000000 0.000000 0.000000 0.000000 0.000000 0.123164 -0.019374 28.003199 -0.000000 0.000000 0.000000 -0.000000 0.000000 0.000000 0.000000 0.000000 0.000000 0.123164 -0.019374 28.003199 -0.000000 0.000000 0.000000 -0.000000 0.000000 0.000000 0.000000 0.000000 0.000000
37.934890 47.478536 386.217387 -0.112170 0.087661 -28.008966 0.140198 -0.024718 28.009082 -0.000000 0.000000 0.000000 -0.000000 0.000000 0.000000 0.000000 0.000000 0.000000 0.838153 0.641910 -0.500395 0.398942 -0.873739 -1.182731 -2.983439 2.215467 5.386227 -0.752351 -3.509178 -3.474139 0.000000 0.000000 0.000000 0.000000 0.000000 0.000000 -0.000000 0.000000 0.000000 1.363533 1.126359 -0.131126 -3.888467 -3.610862 0.714214 -0.085411 2.535288 1.161733 0.000000 0.000000 0.000000 0.000000 0.000000 0.000000 0.140198 -0.024718 28.009082 -0.000000 0.000000 0.000000 -0.000000 0.000000 0.000000 0.000000 0.000000 0.000000 0.140198 -0.024718 28.009082 -0.000000 0.000000 0.000000 -0.000000 0.000000 0.000000 0.000000 0.000000 0.000000
37.945685 47.471513 386.226895 -0.114341 0.094262 -28.052419 0.145238 -0.029416 28.052550 -0.000000 0.000000 0.000000 -0.000000 0.000000 0.000000 0.000000 0.000000 0.000000 0.914208 0.715778 -0.552369 0.370997 -1.018927 -1.225705 -2.947905 2.790850 5.847736 -0.459168 -3.345361 -3.331656 0.000000 0.000000 0.000000 0.000000 0.000000 0.000000 -0.000000 0.000000 0.000000 1.546966 1.376582 -0.046539 -4.677369 -4.864325 0.525945 -0.707408 4.354416 2.296343 0.000000 0.000000 0.000000 0.000000 0.000000 0.000000 0.145238 -0.029416 28.052550 -0.000000 0.000000 0.000000 -0.000000 0.000000 0.000000 0.000000 0.000000 0.000000 0.145238 -0.029416 28.052550 -0.000000 0.000000 0.000000 -0.000000 0.000000 0.000000 0.000000 0.000000 0.000000
37.971219 47.455054 386.229940 -0.091787 0.085626 -28.190304 0.121349 -0.032109 28.190406 -0.000000 0.000000 0.000000 -0.000000 0.000000 0.000000 0.000000 0.000000 0.000000 0.954489 0.880922 -0.628737 0.150334 -1.648167 -1.152477 -2.161822 4.149650 5.988850 1.159421 -0.111728 -0.195193 0.000000 0.000000 0.000000 0.000000 0.000000 0.000000 -0.000000 0.000000 0.000000 1.865848 1.901109 0.190201 -6.507426 -7.570270 0.105550 -3.966970 8.939066 6.603459 0.000000 0.000000 0.000000 0.000000 0.000000 0.000000 0.121349 -0.032109 28.190406 -0.000000 0.000000 0.000000 -0.000000 0.000000 0.000000 0.000000 0.000000 0.000000 0.121349 -0.032109 28.190406 -0.000000 0.000000 0.000000 -0.000000 0.000000 0.000000 0.000000 0.000000 0.000000
37.996943 47.441830 386.228285 -0.066276 0.088167 -28.356169 0.100199 -0.046110 28.356260 -0.000000 0.000000 0.000000 -0.000000 0.000000 0.000000 0.000000 0.000000 0.000000 0.939492 0.959149 -0.654357 -0.167037 -2.106399 -0.898468 -0.316983 5.899509 5.311743 1.050981 1.269227 1.956873 0.000000 0.000000 0.000000 0.000000 0.000000 0.000000 -0.000000 0.000000 0.000000 2.284652 2.332491 0.227812 -9.093222 -10.446470 0.084895 -2.687721 12.819624 7.402094 0.000000 0.000000 0.000000 0.000000 0.000000 0.000000 0.100199 -0.046110 28.356260 -0.000000 0.000000 0.000000 -0.000000 0.000000 0.000000 0.000000 0.000000 0.000000 0.100199 -0.046110 28.356260 -0.000000 0.000000 0.000000 -0.000000 0.000000 0.000000 0.000000 0.000000 0.000000
38.008566 47.438970 386.229704 -0.055875 0.065571 -28.441570 0.080360 -0.031046 28.441624 -0.000000 0.000000 0.000000 -0.000000 0.000000 0.000000 0.000000 0.000000 0.000000 0.850318 0.900921 -0.604205 -0.573468 -2.441016 -0.523746 2.231327 7.918001 4.093263 0.383731 -1.160529 0.180402 0.000000 0.000000 0.000000 0.000000 0.000000 0.000000 -0.000000 0.000000 0.000000 1.976716 2.305526 0.500297 -7.960555 -10.819981 -0.997572 -3.247194 13.333884 8.008152 0.000000 0.000000 0.000000 0.000000 0.000000 0.000000 0.080360 -0.031046 28.441624 -0.000000 0.000000 0.000000 -0.000000 0.000000 0.000000 0.000000 0.000000 0.000000 0.080360 -0.031046 28.441624 -0.000000 0.000000 0.000000 -0.000000 0.000000 0.000000 0.000000 0.000000 0.000000
38.033198 47.435661 386.262575 -0.048189 0.022750 -28.424842 0.053208 0.002931 28.424851 -0.000000 0.000000 0.000000 -0.000000 0.000000 0.000000 0.000000 0.000000 0.000000 0.662847 0.683674 -0.462631 -0.382691 -2.074031 -0.598939 2.801906 7.966587 3.603441 -0.506049 -2.936868 -1.091199 0.000000 0.000000 0.000000 0.000000 0.000000 0.000000 -0.000000 0.000000 0.000000 1.317136 1.840685 0.665065 -4.895188 -8.323972 -1.560611 -4.675722 11.916921 8.005551 0.000000 0.000000 0.000000 0.000000 0.000000 0.000000 0.053208 0.002931 28.424851 -0.000000 0.000000 0.000000 -0.000000 0.000000 0.000000 0.000000 0.000000 0.000000 0.053208 0.002931 28.424851 -0.000000 0.000000 0.000000 -0.000000 0.000000 0.000000 0.000000 0.000000 0.000000
38.075272 47.431645 386.300167 -0.021158 0.006557 -28.422610 0.021729 0.004305 28.422611 -0.000000 0.000000 0.000000 -0.000000 0.000000 0.000000 0.000000 0.000000 0.000000 -0.000000 0.000000 0.000000 0.034563 -1.272405 -0.702738 4.095483 8.005337 2.346469 -1.321917 -4.314780 -1.917006 0.000000 0.000000 0.000000 0.000000 0.000000 0.000000 -0.000000 0.000000 0.000000 0.574430 1.105367 0.622942 -1.903233 -4.084500 -1.153247 -6.880732 7.192408 7.434824 0.000000 0.000000 0.000000 0.000000 0.000000 0.000000 0.021729 0.004305 28.422611 -0.000000 0.000000 0.000000 -0.000000 0.000000 0.000000 0.000000 0.000000 0.000000 0.021729 0.004305 28.422611 -0.000000 0.000000 0.000000 -0.000000 0.000000 0.000000 0.000000 0.000000 0.000000
38.125010 47.421561 386.339818 0.017314 -0.010047 -28.447486 -0.020010 0.000586 28.447488 -0.000000 0.000000 0.000000 -0.000000 0.000000 0.000000 0.000000 0.000000 0.000000 -0.000000 0.000000 0.000000 -0.000000 0.000000 0.000000 3.767967 5.395912 1.095119 -1.905414 -4.999723 -2.664781 0.000000 0.000000 0.000000 0.000000 0.000000 0.000000 -0.000000 0.000000 0.000000 0.023706 1.006272 1.065281 4.249131 1.457388 -2.935601 -10.086114 1.015984 6.351323 0.000000 0.000000 0.000000 0.000000 0.000000 0.000000 -0.020010 0.000586 28.447488 -0.000000 0.000000 0.000000 -0.000000 0.000000 0.000000 0.000000 0.000000 0.000000 -0.020010 0.000586 28.447488 -0.000000 0.000000 0.000000 -0.000000 0.000000 0.000000 0.000000 0.000000 0.000000
38.184973 47.402269 386.378887 0.055604 -0.012940 -28.495556 -0.055042 -0.015156 28.495555 -0.000000 0.000000 0.000000 -0.000000 0.000000 0.000000 0.000000 0.000000 0.000000 0.556024 -0.642711 0.081056 -0.555149 0.643467 -0.074820 2.784433 3.679564 0.587177 -5.124529 -8.670672 -5.498698 0.000000 0.000000 0.000000 0.000000 0.000000 0.000000 -1.622761 -0.247482 -0.925686 1.654371 1.597993 2.289798 12.070119 5.324655 -6.848847 -14.935656 -7.222997 6.337175 0.000000 0.000000 0.000000 0.000000 0.000000 0.000000 -0.055042 -0.015156 28.495555 -0.000000 0.000000 0.000000 -0.000000 0.000000 0.000000 0.000000 0.000000 0.000000 -0.055042 -0.015156 28.495555 -0.000000 0.000000 0.000000 -0.000000 0.000000 0.000000 0.000000 0.000000 0.000000
38.227402 47.398270 386.404376 0.059777 0.003479 -28.485277 -0.050881 -0.031567 28.485261 -0.000000 0.000000 0.000000 -0.000000 0.000000 0.000000 0.000000 0.000000 0.000000 0.614623 -0.972210 0.191421 -0.327981 3.427824 0.682308 0.728567 -0.618319 -0.127794 -8.222910 -11.866225 -8.806076 0.000000 0.000000 0.000000 0.000000 0.000000 0.000000 -1.336983 -0.014761 -0.681047 0.209641 0.605203 2.447567 19.682686 8.467244 -10.762177 -18.232267 -13.068750 6.392625 0.000000 0.000000 0.000000 0.000000 0.000000 0.000000 -0.050881 -0.031567 28.485261 -0.000000 0.000000 0.000000 -0.000000 0.000000 0.000000 0.000000 0.000000 0.000000 -0.050881 -0.031567 28.485261 -0.000000 0.000000 0.000000 -0.000000 0.000000 0.000000 0.000000 0.000000 0.000000
38.277557 47.402715 386.447765 0.075185 0.021415 -28.425539 -0.055927 -0.054622 28.425498 -0.000000 0.000000 0.000000 -0.000000 0.000000 0.000000 0.000000 0.000000 0.000000 0.622803 -1.213200 0.282554 -0.380368 2.567362 0.111539 1.208279 1.784438 1.110040 -7.392865 -10.901712 -7.556779 0.000000 0.000000 0.000000 0.000000 0.000000 0.000000 1.491278 0.852312 1.089803 -8.635721 -7.562668 -2.378795 23.465798 11.736191 -11.089410 -13.251117 -10.955110 6.122233 0.000000 0.000000 0.000000 0.000000 0.000000 0.000000 -0.055927 -0.054622 28.425498 -0.000000 0.000000 0.000000 -0.000000 0.000000 0.000000 0.000000 0.000000 0.000000 -0.055927 -0.054622 28.425498 -0.000000 0.000000 0.000000 -0.000000 0.000000 0.000000 0.000000 0.000000 0.000000
